mtllib material.mtl
o Default
v -4 0 4
v 0 0 0
v -4 0 0
v 0 0 4
v -4 -4 0
v 0 -4 4
v -4 -4 4
v 0 -4 0
vt 0.800000011920929 0
vt 1 1
vt 0.800000011920929 1
vt 1 0
vt 0.6000000238418579 0
vt 0.6000000238418579 1
vt 0 0
vt 0.20000000298023224 1
vt 0 1
vt 0.20000000298023224 0
vn 0 1 0
vn 0 -1 0
vn 1 0 0
vn 0 0 -1
vn -1 0 0
vn 0 0 1
g Bottom
usemtl Sprite-0004
f 1/1/1 2/2/1 3/3/1
f 1/1/1 4/4/1 2/2/1
f 5/5/2 6/3/2 7/6/2
f 5/5/2 8/1/2 6/3/2
f 6/7/3 2/8/3 4/9/3
f 6/7/3 8/10/3 2/8/3
f 8/7/4 3/8/4 2/9/4
f 8/7/4 5/10/4 3/8/4
f 5/7/5 1/8/5 3/9/5
f 5/7/5 7/10/5 1/8/5
f 7/7/6 4/8/6 1/9/6
f 7/7/6 6/10/6 4/8/6
