mtllib material.mtl
o Default
v -4 0 -4
v 0 0 0
v -4 0 0
v 0 0 -4
v -4 4 0
v 0 4 -4
v -4 4 -4
v 0 4 0
vt 0.6000000238418579 0
vt 0.800000011920929 1
vt 0.6000000238418579 1
vt 0.800000011920929 0
vt 1 1
vt 1 0
vt 0.4000000059604645 0
vt 0.4000000059604645 1
vn 0 -1 0
vn 0 1 0
vn 0 0 1
vn 1 0 0
vn 0 0 -1
vn -1 0 0
g Top
usemtl Sprite-0004
f 1/1/1 2/2/1 3/3/1
f 1/1/1 4/4/1 2/2/1
f 5/4/2 6/5/2 7/2/2
f 5/4/2 8/6/2 6/5/2
f 3/7/3 8/3/3 5/8/3
f 3/7/3 2/1/3 8/3/3
f 2/7/4 6/3/4 8/8/4
f 2/7/4 4/1/4 6/3/4
f 4/7/5 7/3/5 6/8/5
f 4/7/5 1/1/5 7/3/5
f 1/7/6 5/3/6 7/8/6
f 1/7/6 3/1/6 5/3/6
