mtllib material.mtl
o Default
v 3.7708332538604736 0.8333333134651184 0.8333331942558289
v 4.2708330154418945 1.1666666269302368 0.33333319425582886
v 3.7708332538604736 1.1666666269302368 0.8333331942558289
v 4.2708330154418945 0.8333333134651184 0.33333319425582886
v 4.2708330154418945 1.5 0.33333319425582886
v 3.7708332538604736 1.5 0.8333331942558289
v 4.2708330154418945 0.5 -3.6666667461395264
v 3.7708332538604736 0.8333333134651184 -4.1666669845581055
v 4.2708330154418945 0.8333333134651184 -3.6666667461395264
v 3.7708332538604736 0.5 -4.1666669845581055
v 3.7708332538604736 1.1666666269302368 -4.1666669845581055
v 4.2708330154418945 1.1666666269302368 -3.6666667461395264
v 3.7708332538604736 1.5 -4.1666669845581055
v 4.2708330154418945 1.5 -3.6666667461395264
v -0.22916680574417114 0.5 -4.1666669845581055
v -0.7291668057441711 0.8333333134651184 -3.6666667461395264
v -0.22916680574417114 0.8333333134651184 -4.1666669845581055
v -0.7291668057441711 0.5 -3.6666667461395264
v -0.7291668057441711 1.1666666269302368 -3.6666667461395264
v -0.22916680574417114 1.1666666269302368 -4.1666669845581055
v -0.7291668057441711 1.5 -3.6666667461395264
v -0.22916680574417114 1.5 -4.1666669845581055
v 4.2708330154418945 2.5 -3.6666667461395264
v 3.7708332538604736 3.5 -4.1666669845581055
v 4.2708330154418945 3.5 -3.6666667461395264
v 3.7708332538604736 2.5 -4.1666669845581055
v 3.7708332538604736 4.5 -4.1666669845581055
v 4.2708330154418945 4.5 -3.6666667461395264
v 4.2708330154418945 2.5 0.33333319425582886
v 3.7708332538604736 2.5 0.8333331942558289
v 4.2708330154418945 3.5 0.33333319425582886
v 3.7708332538604736 3.5 0.8333331942558289
v 4.2708330154418945 4.5 0.33333319425582886
v 3.7708332538604736 4.5 0.8333331942558289
v -0.7291668057441711 1.5 0.33333319425582886
v -0.22916680574417114 2.5 0.8333331942558289
v -0.7291668057441711 2.5 0.33333319425582886
v -0.22916680574417114 1.5 0.8333331942558289
v -0.22916680574417114 3.5 0.8333331942558289
v -0.7291668057441711 3.5 0.33333319425582886
v -0.22916680574417114 4.5 0.8333331942558289
v -0.7291668057441711 4.5 0.33333319425582886
v -1.9791667461395264 2.8333330154418945 -1.4166667461395264
v -1.2291667461395264 3.1666667461395264 -1.1666667461395264
v -1.7291667461395264 3.6666667461395264 -1.1666667461395264
v -1.4791667461395264 2.8333330154418945 -1.1666667461395264
v -0.7291668057441711 3.5 -0.9999998211860657
v -0.7291668057441711 4.5 -0.9999998211860657
v -1.7291667461395264 2 -1.9166667461395264
v -1.9791667461395264 2.8333330154418945 -1.9166667461395264
v -1.7291667461395264 2 -1.4166667461395264
v -1.7291667461395264 3.6666667461395264 -2.1666667461395264
v -0.7291668057441711 4.5 -2.3333332538604736
v -1.4791667461395264 2 -1.9166667461395264
v -1.4791667461395264 2.8333330154418945 -2.1666667461395264
v -1.2291667461395264 3.1666667461395264 -2.1666667461395264
v -0.7291668057441711 3.5 -2.3333332538604736
v 5.2708330154418945 3.6666667461395264 -2.1666667461395264
v 4.2708330154418945 3.5 -2.3333334922790527
v 4.2708330154418945 4.5 -2.3333334922790527
v 4.7708330154418945 3.1666667461395264 -2.1666667461395264
v -1.4791667461395264 2 -1.4166667461395264
v 5.0208330154418945 2 -1.4166667461395264
v 5.5208330154418945 2.8333330154418945 -1.4166667461395264
v 5.0208330154418945 2.8333330154418945 -1.1666667461395264
v 5.2708330154418945 2 -1.4166667461395264
v 0.47916650772094727 -1.75 -1.5833334922790527
v 1.1458332538604736 0 -1.000000238418579
v -0.22916674613952637 0 -1
v 1.1458332538604736 0 -2.3333334922790527
v 5.2708330154418945 3.6666667461395264 -1.1666667461395264
v 4.2708330154418945 4.5 -1.000000238418579
v -0.22916674613952637 0 -2.3333334922790527
v 5.5208330154418945 2.8333330154418945 -1.9166667461395264
v 5.0208330154418945 2.8333330154418945 -2.1666667461395264
v 4.7708330154418945 3.1666667461395264 -1.1666667461395264
v 4.2708330154418945 3.5 -1.000000238418579
v 5.0208330154418945 2 -1.9166667461395264
v 3.1041665077209473 -1.75 -1.5833334922790527
v 2.4375 0 -2.3333334922790527
v 3.7708332538604736 0 -2.3333334922790527
v 2.4375 0 -1
v 3.7708332538604736 0 -1.000000238418579
v 5.2708330154418945 2 -1.9166667461395264
v -1.562500238418579 7 0.33333319425582886
v -0.22916680574417114 8 1.3333332538604736
v -1.2291667461395264 8 0.33333319425582886
v -0.22916680574417114 7 1.6666665077209473
v -2.2291667461395264 5 0.33333319425582886
v -0.22916680574417114 6 2
v -1.8958334922790527 6 0.33333319425582886
v -0.22916680574417114 5 2.3333332538604736
v 3.7708332538604736 6 2
v 5.104166507720947 7 0.33333319425582886
v 3.7708332538604736 7 1.6666665077209473
v 5.437499523162842 6 0.33333319425582886
v 3.7708332538604736 5 2.3333332538604736
v 5.7708330154418945 5 0.33333319425582886
v 4.7708330154418945 8 0.33333319425582886
v 3.7708332538604736 8.5 -1.0000001192092896
v 3.7708332538604736 8.5 0.33333319425582886
v 4.7708330154418945 8 -1.0000001192092896
v 3.7708332538604736 4 1.8333332538604736
v 5.437499523162842 4.3333330154418945 0.33333319425582886
v 3.7708332538604736 4.3333330154418945 1.999999761581421
v 5.2708330154418945 4 0.33333319425582886
v 3.7708332538604736 0 -3.6666667461395264
v -0.22916680574417114 0 -3.6666667461395264
v 3.7708332538604736 0 0.33333319425582886
v 4.2708330154418945 0.5 0.33333319425582886
v 3.7708332538604736 0.5 0.8333331942558289
v 3.7708332538604736 8 1.3333332538604736
v 3.7708332538604736 8.5 -3.6666667461395264
v 4.7708330154418945 8 -3.6666667461395264
v 3.7708332538604736 8 -4.6666669845581055
v 1.1041665077209473 8 -4.6666669845581055
v -0.22916680574417114 8.5 -3.6666667461395264
v 1.1041665077209473 8.5 -3.6666667461395264
v -0.22916680574417114 8 -4.6666669845581055
v 2.4375 8 -4.6666669845581055
v 2.4375 8.5 -3.6666667461395264
v 1.1041665077209473 5 -5.6666669845581055
v -0.22916680574417114 6 -5.333333492279053
v 1.1041665077209473 6 -5.333333492279053
v -0.22916680574417114 5 -5.6666669845581055
v 2.4375 5 -5.6666669845581055
v 2.4375 6 -5.333333492279053
v 3.7708332538604736 5 -5.6666669845581055
v 3.7708332538604736 6 -5.333333492279053
v -0.22916680574417114 7 -5
v 1.1041665077209473 7 -5
v 2.4375 7 -5
v 3.7708332538604736 7 -5
v 1.1041665077209473 4 -5.1666669845581055
v -0.22916680574417114 4.3333330154418945 -5.333333492279053
v 1.1041665077209473 4.3333330154418945 -5.333333492279053
v -0.22916680574417114 4 -5.1666669845581055
v 2.4375 4 -5.1666669845581055
v 2.4375 4.3333330154418945 -5.333333492279053
v 3.7708332538604736 4 -5.1666669845581055
v 3.7708332538604736 4.3333330154418945 -5.333333492279053
v -0.22916680574417114 4.6666669845581055 -5.500000476837158
v 1.1041665077209473 4.6666669845581055 -5.500000476837158
v 2.4375 4.6666669845581055 -5.500000476837158
v 3.7708332538604736 4.6666669845581055 -5.500000476837158
v 1.1041665077209473 0.5 -4.1666669845581055
v 1.1041665077209473 0.8333333134651184 -4.1666669845581055
v 2.4375 0.5 -4.1666669845581055
v 2.4375 0.8333333134651184 -4.1666669845581055
v 1.1041665077209473 1.1666666269302368 -4.1666669845581055
v 2.4375 1.1666666269302368 -4.1666669845581055
v 1.1041665077209473 1.5 -4.1666669845581055
v 2.4375 1.5 -4.1666669845581055
v -0.22916680574417114 2.5 -4.1666669845581055
v 1.1041665077209473 2.5 -4.1666669845581055
v 2.4375 2.5 -4.1666669845581055
v -0.22916680574417114 3.5 -4.1666669845581055
v 1.1041665077209473 3.5 -4.1666669845581055
v 2.4375 3.5 -4.1666669845581055
v -0.22916680574417114 4.5 -4.1666669845581055
v 1.1041665077209473 4.5 -4.1666669845581055
v 2.4375 4.5 -4.1666669845581055
v 1.1041665077209473 0 -3.6666667461395264
v -0.7291668057441711 2.5 -3.6666667461395264
v 5.2708330154418945 4 -3.6666667461395264
v 5.437499523162842 4.3333330154418945 -3.6666667461395264
v -0.7291668057441711 3.5 -3.6666667461395264
v 2.4375 0 -3.6666667461395264
v -1.062500238418579 4.3333330154418945 0.33333319425582886
v -0.22916680574417114 4.1666669845581055 1.5
v -1.3958334922790527 4.1666669845581055 0.33333319425582886
v -0.22916680574417114 4.3333330154418945 1.1666667461395264
v -2.0625 4.6666669845581055 -2.3333332538604736
v -2.2291667461395264 5 -1
v -2.2291667461395264 5 -2.3333332538604736
v -2.0625 4.6666669845581055 -1
v -0.22916680574417114 4.3333330154418945 -4.500000476837158
v 1.1041665077209473 4.3333330154418945 -4.500000476837158
v 2.4375 4.3333330154418945 -4.500000476837158
v 3.7708332538604736 4.3333330154418945 -4.500000476837158
v -0.22916680574417114 4.1666669845581055 -4.833333492279053
v 1.1041665077209473 4.1666669845581055 -4.833333492279053
v 2.4375 4.1666669845581055 -4.833333492279053
v 3.7708332538604736 4.1666669845581055 -4.833333492279053
v 4.604166507720947 4.3333330154418945 -3.6666667461395264
v 4.604166507720947 4.3333330154418945 -2.3333334922790527
v 4.604166507720947 4.3333330154418945 -1.000000238418579
v 4.604166507720947 4.3333330154418945 0.33333319425582886
v 4.937499523162842 4.1666669845581055 -3.6666667461395264
v 4.937499523162842 4.1666669845581055 -2.3333334922790527
v 4.937499523162842 4.1666669845581055 -1.000000238418579
v 4.937499523162842 4.1666669845581055 0.33333319425582886
v 5.2708330154418945 4 -2.3333334922790527
v 5.2708330154418945 4 -1.000000238418579
v -1.7291667461395264 4 -3.6666667461395264
v -1.8958334922790527 4.3333330154418945 -2.3333332538604736
v -1.8958334922790527 4.3333330154418945 -3.6666667461395264
v -1.7291667461395264 4 -2.3333332538604736
v -2.062500238418579 4.6666669845581055 -3.6666667461395264
v 4.2708330154418945 0.5 -1.000000238418579
v -2.2291667461395264 5 -3.6666667461395264
v 4.2708330154418945 0.5 -2.3333334922790527
v -2.062500238418579 4.6666669845581055 0.33333319425582886
v -0.22916680574417114 4.6666669845581055 2.1666667461395264
v 4.2708330154418945 0.8333333134651184 -2.3333334922790527
v 4.2708330154418945 0.8333333134651184 -1.000000238418579
v 4.2708330154418945 1.1666666269302368 -2.3333334922790527
v 4.2708330154418945 1.1666666269302368 -1.000000238418579
v 4.2708330154418945 1.5 -2.3333334922790527
v 4.2708330154418945 1.5 -1.000000238418579
v 5.437499523162842 4.3333330154418945 -2.3333332538604736
v 5.437499523162842 4.3333330154418945 -1
v 5.604166507720947 4.6666669845581055 -3.6666667461395264
v 5.604166507720947 4.6666669845581055 -2.3333332538604736
v 5.604166507720947 4.6666669845581055 -1
v 5.604166507720947 4.6666669845581055 0.33333319425582886
v 5.7708330154418945 5 -3.6666667461395264
v 5.7708330154418945 5 -2.3333332538604736
v 5.7708330154418945 5 -1
v 5.437499523162842 6 -3.6666667461395264
v 5.437499523162842 6 -2.3333334922790527
v 5.437499523162842 6 -1.0000001192092896
v 5.104166507720947 7 -3.6666667461395264
v 5.104166507720947 7 -2.3333334922790527
v 5.104166507720947 7 -1.0000001192092896
v 4.7708330154418945 8 -2.3333334922790527
v 4.2708330154418945 2.5 -2.3333334922790527
v 4.2708330154418945 2.5 -1.000000238418579
v 3.7708332538604736 8.5 -2.3333334922790527
v 1.1041665077209473 8.5 0.33333319425582886
v 2.4375 8.5 -1.0000001192092896
v 1.1041665077209473 8.5 -1.0000001192092896
v 2.4375 8.5 0.33333319425582886
v -0.22916680574417114 8.5 0.33333319425582886
v -0.22916680574417114 8.5 -1.0000001192092896
v 2.4375 8.5 -2.3333334922790527
v 1.1041665077209473 8.5 -2.3333334922790527
v -0.22916680574417114 8.5 -2.3333334922790527
v -0.7291668057441711 0.5 0.33333319425582886
v -0.22916680574417114 0.8333333134651184 0.8333331942558289
v -0.7291668057441711 0.8333333134651184 0.33333319425582886
v -0.22916680574417114 0.5 0.8333331942558289
v -0.22916680574417114 1.1666666269302368 0.8333331942558289
v -0.7291668057441711 1.1666666269302368 0.33333319425582886
v -1.062500238418579 4.3333330154418945 -3.6666667461395264
v -0.7291668057441711 4.5 -3.6666667461395264
v -1.2291667461395264 8 -1
v -1.2291667461395264 8 -2.3333334922790527
v -1.2291667461395264 8 -3.6666667461395264
v 2.4375 8 1.3333332538604736
v -1.8958334922790527 6 -3.6666667461395264
v -1.562500238418579 7 -3.6666667461395264
v 1.1041665077209473 8 1.3333332538604736
v -1.8958334922790527 6 -1
v -1.8958334922790527 6 -2.3333334922790527
v -1.562500238418579 7 -1
v -1.562500238418579 7 -2.3333334922790527
v 2.4375 4.5 0.8333331942558289
v 3.7708332538604736 4.3333330154418945 1.1666665077209473
v 2.4375 4.3333330154418945 1.1666665077209473
v 1.1041665077209473 4.5 0.8333331942558289
v 1.1041665077209473 4.3333330154418945 1.1666665077209473
v 3.7708332538604736 4.1666669845581055 1.5
v 2.4375 4.1666669845581055 1.5
v 1.1041665077209473 4.1666669845581055 1.5
v 2.4375 4 1.8333332538604736
v 1.1041665077209473 4 1.8333332538604736
v -0.22916680574417114 4 1.8333332538604736
v 2.4375 1.5 0.8333331942558289
v 2.4375 2.5 0.8333331942558289
v 1.1041665077209473 1.5 0.8333331942558289
v 1.1041665077209473 2.5 0.8333331942558289
v 2.4375 3.5 0.8333331942558289
v 1.1041665077209473 3.5 0.8333331942558289
v 2.4375 0.5 0.8333331942558289
v 2.4375 0.8333333134651184 0.8333331942558289
v 1.1041665077209473 0.5 0.8333331942558289
v 1.1041665077209473 0.8333333134651184 0.8333331942558289
v 2.4375 1.1666666269302368 0.8333331942558289
v 1.1041665077209473 1.1666666269302368 0.8333331942558289
v 3.7708332538604736 4.6666669845581055 2.1666667461395264
v -1.7291667461395264 4 0.33333319425582886
v -0.22916680574417114 4.3333330154418945 1.999999761581421
v -1.8958334922790527 4.3333330154418945 0.33333319425582886
v 2.4375 0 0.33333319425582886
v 1.1041665077209473 0 0.33333319425582886
v -0.22916680574417114 0 0.33333319425582886
v 1.1041665077209473 0 -2.3333334922790527
v 1.1041665077209473 0 -1
v -1.3958334922790527 4.1666669845581055 -3.6666667461395264
v -0.7291668057441711 0.5 -2.3333334922790527
v -0.7291668057441711 0.5 -1.000000238418579
v -0.7291668057441711 0.8333333134651184 -1.000000238418579
v -0.7291668057441711 0.8333333134651184 -2.3333334922790527
v -0.7291668057441711 1.1666666269302368 -1.000000238418579
v -0.7291668057441711 1.1666666269302368 -2.3333334922790527
v -0.7291668057441711 1.5 -1.000000238418579
v -0.7291668057441711 1.5 -2.3333334922790527
v -1.7291667461395264 4 -1
v -1.8958334922790527 4.3333330154418945 -1
v -1.062500238418579 4.3333330154418945 -1.000000238418579
v -1.062500238418579 4.3333330154418945 -2.3333334922790527
v -1.3958334922790527 4.1666669845581055 -1.000000238418579
v -1.3958334922790527 4.1666669845581055 -2.3333334922790527
v -0.7291668057441711 2.5 -1.000000238418579
v -0.7291668057441711 2.5 -2.3333334922790527
v 2.4375 4.3333330154418945 2
v 1.1041665077209473 4.3333330154418945 2
v 2.4375 4.6666669845581055 2.1666665077209473
v 1.1041665077209473 4.6666669845581055 2.1666665077209473
v 2.4375 5 2.3333332538604736
v 1.1041665077209473 5 2.3333332538604736
v 2.4375 6 2
v 1.1041665077209473 6 2
v 2.4375 7 1.6666665077209473
v 1.1041665077209473 7 1.6666665077209473
vt 0 0.0416666679084301
vt 0.0833333358168602 0.0833333358168602
vt 0 0.0833333358168602
vt 0.0833333358168602 0.0416666679084301
vt 0.0833333358168602 0.125
vt 0 0.125
vt 0 0
vt 0.0833333358168602 0
vt 0 0.25
vt 0.0833333358168602 0.375
vt 0 0.375
vt 0.0833333358168602 0.25
vt 0.0833333358168602 0.5
vt 0 0.5
vt 0.25 0.1666666716337204
vt 0.3333333432674408 0.3333333432674408
vt 0.25 0.3333333432674408
vt 0.3333333432674408 0.1666666716337204
vt 0.3333333432674408 0.5
vt 0.25 0.5
vt 0.25 0
vt 0.3333333432674408 0
vt 0.1666666716337204 0.375
vt 0.1666666716337204 0.5
vt 0.25 0.375
vt 0.8333333134651184 0.75
vt 0.6666666865348816 0.625
vt 0.8333333134651184 0.625
vt 0.6666666865348816 0.75
vt 0.8333333134651184 1
vt 0.6666666865348816 0.875
vt 0.8333333134651184 0.875
vt 0.6666666865348816 1
vt 1 0.625
vt 0.8888888955116272 0.5
vt 1 0.5
vt 0.8888888955116272 0.625
vt 0.3333333432674408 0.875
vt 0.6666666865348816 0.9166666865348816
vt 0.3333333432674408 0.9166666865348816
vt 0.3333333432674408 0.375
vt 0.4166666567325592 0.5
vt 0.8333333134651184 0.5
vt 0.6666666865348816 0.5
vt 0.6666666865348816 0.25
vt 0.7777777910232544 0.625
vt 0.7777777910232544 0.5
vt 0.7777777910232544 1
vt 0.7777777910232544 0.875
vt 0.8888888955116272 1
vt 0.8888888955116272 0.875
vt 1 1
vt 1 0.875
vt 0.7777777910232544 0.75
vt 0.8888888955116272 0.75
vt 1 0.75
vt 0.5555555820465088 0.875
vt 0.5555555820465088 0.9166666865348816
vt 0.4444444477558136 0.875
vt 0.4444444477558136 0.9166666865348816
vt 0.6666666865348816 0.9583333134651184
vt 0.5555555820465088 0.9583333134651184
vt 0.4444444477558136 0.9583333134651184
vt 0.3333333432674408 0.9583333134651184
vt 0.5555555820465088 1
vt 0.4444444477558136 1
vt 0.3333333432674408 1
vt 0.2222222238779068 0
vt 0.3333333432674408 0.0416666679084301
vt 0.2222222238779068 0.0416666679084301
vt 0.1111111119389534 0
vt 0.1111111119389534 0.0416666679084301
vt 0.3333333432674408 0.0833333358168602
vt 0.2222222238779068 0.0833333358168602
vt 0.1111111119389534 0.0833333358168602
vt 0.3333333432674408 0.125
vt 0.2222222238779068 0.125
vt 0.1111111119389534 0.125
vt 0.3333333432674408 0.25
vt 0.2222222238779068 0.25
vt 0.1111111119389534 0.25
vt 0.2222222238779068 0.375
vt 0.1111111119389534 0.375
vt 0.2222222238779068 0.5
vt 0.1111111119389534 0.5
vt 0.5555555820465088 0.375
vt 0.5555555820465088 0.5
vt 0.6666666865348816 0.375
vt 0.4444444477558136 0.375
vt 0.4444444477558136 0.5
vt 0.3333333432674408 0.7916666865348816
vt 0.4166666567325592 0.8333333134651184
vt 0.3333333432674408 0.8333333134651184
vt 0.4166666567325592 0.7916666865348816
vt 0.3333333432674408 0.75
vt 0.4166666567325592 0.75
vt 0.6666666865348816 0.5833333134651184
vt 0.5555555820465088 0.5833333134651184
vt 0.4444444477558136 0.5833333134651184
vt 0.3333333432674408 0.5833333134651184
vt 0.6666666865348816 0.6666666865348816
vt 0.5555555820465088 0.6666666865348816
vt 0.4444444477558136 0.6666666865348816
vt 0.3333333432674408 0.6666666865348816
vt 0.5555555820465088 0.75
vt 0.4444444477558136 0.75
vt 0.7777777910232544 0.3333333432674408
vt 0.8888888955116272 0.3333333432674408
vt 1 0.3333333432674408
vt 0.6666666865348816 0.1666666716337204
vt 0.7777777910232544 0.1666666716337204
vt 0.6666666865348816 0.3333333432674408
vt 0.8888888955116272 0.1666666716337204
vt 1 0.1666666716337204
vt 0.6666666865348816 0
vt 0.7777777910232544 0
vt 0.8888888955116272 0
vt 1 0
vt 0.2222222238779068 0.875
vt 0.2222222238779068 1
vt 0 0.875
vt 0.1111111119389534 1
vt 0 1
vt 0.1111111119389534 0.875
vt 0.4166666567325592 0.875
vt 0.5555555820465088 0
vt 0.5555555820465088 0.1666666716337204
vt 0.4444444477558136 0
vt 0.4444444477558136 0.1666666716337204
vt 0.5555555820465088 0.3333333432674408
vt 0.4444444477558136 0.3333333432674408
vt 0.3333333432674408 0.625
vt 0.2222222238779068 0.625
vt 0.1111111119389534 0.625
vt 0 0.625
vt 0.2222222238779068 0.75
vt 0.1111111119389534 0.75
vt 0 0.75
vn 0.70710695 0 0.70710661
vn 0.70710712 0 -0.70710644
vn -0.70710695 0 -0.70710661
vn -0.70710678 0 0.70710678
vn -0.21938165 -0.21938165 0.95065418
vn -0.4239992 0.31799902 0.84799841
vn -0.16439924 0 0.98639388
vn -0.1924504 -0.1924504 0.96225033
vn -0.95782626 -0.28734799 0
vn -0.95782632 0.28734776 0
vn -0.64018439 0.76822129 0
vn -0.4319342 -0.25916062 -0.8638684
vn 0 0 -1
vn -0.31622753 0 -0.94868338
vn -0.09016689 -0.09016689 -0.99183661
vn 0.16439906 0 -0.98639391
vn 0.19245019 -0.19245019 -0.96225041
vn 0.80000034 -0.59999954 0
vn 0 -1 0
vn 0.55470015 -0.83205032 0
vn 0.4319342 -0.25916062 0.8638684
vn 0 0 1
vn 1.6e-7 -0.31622778 0.94868329
vn 0.93448772 -0.35599536 0
vn 1 0 0
vn 0.64018436 0.76822131 0
vn 0 -0.3939193 -0.91914503
vn -0.92694683 -0.37519272 0
vn -0.4432422 -0.13297271 0.88648441
vn 0 -0.28734799 0.95782626
vn 0.21938165 -0.21938165 -0.95065418
vn 0.4239992 0.31799902 -0.84799841
vn 0.31622749 0 0.94868339
vn 0.09016688 -0.09016688 0.99183661
vn -1 0 0
vn -0.80000034 -0.59999954 0
vn -0.44324221 -0.1329726 -0.88648442
vn -0.93448776 -0.35599525 0
vn 0.44324221 -0.1329726 0.88648442
vn 1.7e-7 -0.31622779 0.94868329
vn 0.95782626 -0.28734799 0
vn 0.95782632 0.28734776 0
vn -0.5547001 -0.83205036 0
vn 0.4432422 -0.13297271 -0.88648441
vn 0 -0.28734799 -0.95782626
vn -0.68824722 0.22941585 0.68824714
vn -0.68824718 0.22941569 0.68824724
vn -0.68824723 0.22941569 0.68824718
vn -0.68824723 0.22941568 0.68824719
vn 0.6882472 0.22941583 0.68824717
vn 0.68824734 0.22941556 0.68824712
vn 0.68824733 0.22941565 0.68824711
vn 0.68824723 0.22941585 0.68824713
vn 0.44721368 0.89442715 0
vn 0.66666673 -0.33333331 0.66666661
vn 0.66666673 -0.33333336 0.66666659
vn 0.57735054 -0.57735027 -0.57734999
vn -0.57735036 -0.57735036 -0.57735009
vn 0.57735045 -0.57735018 0.57735018
vn 0.40824838 0.81649656 0.40824825
vn 0.40824839 0.81649658 -0.40824819
vn 0 0.89442723 -0.44721351
vn 0 0.3162279 -0.94868325
vn 0 0.31622749 -0.94868339
vn 0 -0.4472136 -0.89442719
vn 0 -0.70710695 -0.70710661
vn 0.66666675 -0.33333338 -0.66666656
vn 0.66666678 -0.33333329 -0.66666657
vn 0.40824732 -0.81649757 -0.40824728
vn 0.40824737 -0.81649753 -0.40824731
vn 0.40824874 -0.81649616 -0.40824868
vn 0.40824863 -0.81649624 -0.40824863
vn -0.89442694 -0.44721411 0
vn 0 -0.89442694 0.44721411
vn 0 -0.8944277 0.44721257
vn -0.44721411 -0.89442694 0
vn -0.44721257 -0.8944277 0
vn -0.66666673 -0.33333331 -0.66666662
vn -0.66666678 -0.33333291 -0.66666676
vn 0.70710695 -0.70710661 0
vn -0.89442745 -0.44721308 1.6e-7
vn -0.8944277 -0.44721257 0
vn -0.66666668 -0.33333333 -0.66666666
vn -0.66666662 -0.33333379 -0.66666649
vn -0.66666672 -0.33333331 -0.66666662
vn -0.66666671 -0.33333336 -0.66666661
vn -0.66666668 -0.33333334 0.66666664
vn -0.66666669 -0.33333332 0.66666665
vn 0.89442719 -0.4472136 0
vn 0.94868325 0.3162279 0
vn 0.94868339 0.31622749 0
vn 0.68824724 0.22941553 -0.68824724
vn 0.68824729 0.22941581 -0.68824709
vn 0 1 0
vn 0.4082488 -0.81649614 0.40824866
vn 0.40824876 -0.81649621 0.40824857
vn 0.66666674 -0.33333337 -0.66666658
vn 0.66666676 -0.33333329 -0.66666659
vn 0.66666674 -0.33333337 -0.66666657
vn 0.66666677 -0.33333329 -0.66666658
vn -0.44721362 0.89442718 0
vn 0 0.8944272 0.44721357
vn -0.6882472 0.22941583 -0.68824717
vn -0.68824726 0.2294157 -0.68824716
vn -0.68824734 0.22941549 -0.68824714
vn -0.68824714 0.22941582 -0.68824723
vn 0.68824728 0.22941587 -0.68824708
vn 0.68824727 0.22941581 -0.68824711
vn 0.68824734 0.22941589 -0.68824701
vn -0.68824714 0.22941585 -0.68824723
vn -0.68824722 0.22941569 -0.6882472
vn -0.94868332 0.3162277 0
vn -0.94868325 0.3162279 0
vn 0 -0.89442684 -0.4472143
vn -8e-8 -0.89442697 -0.44721404
vn 0 -0.89442796 -0.44721206
vn 0 -0.89442783 -0.44721232
vn -8e-8 -0.89442796 -0.44721206
vn 0 -0.89442681 -0.44721436
vn 0.66666673 -0.33333331 0.66666662
vn 0.66666672 -0.33333336 0.6666666
vn -0.66666654 -0.33333375 0.66666659
vn -0.6666667 -0.33333332 0.66666664
vn -0.66666679 -0.33333292 0.66666675
vn -0.66666664 -0.33333334 0.66666669
vn 0.66666672 -0.33333331 0.66666662
vn 0.66666671 -0.33333336 0.66666661
vn -0.4082487 -0.81649623 0.40824857
vn -0.40824882 -0.81649614 0.40824865
vn -0.40824754 -0.81649742 0.40824737
vn -0.40824771 -0.81649728 0.40824747
vn 0 -0.70710678 0.70710678
vn -0.68824718 0.22941567 0.68824724
vn -0.68824721 0.22941583 0.68824716
vn 0.40824875 -0.81649616 0.40824867
vn 0.40824888 -0.816496 0.40824886
vn -0.40824728 -0.81649769 -0.40824709
vn -0.40824752 -0.81649737 -0.40824749
vn -0.70710678 -0.70710678 0
vn -0.70710674 -0.70710682 3e-8
vn -0.70710674 -0.70710682 0
vn -0.70710678 -0.70710678 -3e-8
vn -0.40824894 -0.81649597 -0.40824886
vn -0.40824871 -0.81649625 -0.40824852
vn 0.40824753 -0.81649735 0.40824751
vn 0.40824734 -0.8164976 0.4082472
vn -0.40824885 -0.81649604 -0.40824882
vn -0.40824871 -0.81649626 -0.40824852
vn -0.40824872 -0.81649627 0.40824849
vn -0.408249 -0.81649606 0.40824861
vn 0.40824888 -0.81649601 -0.40824885
vn 0.40824891 -0.81649598 -0.40824887
vn -0.8944277 -0.44721257 -1.6e-7
vn -0.89442745 -0.44721308 0
vn -0.89442719 -0.4472136 -1.6e-7
vn -0.89442719 -0.4472136 0
vn -0.89442694 -0.44721411 1.6e-7
vn 0.44721417 -0.8944269 0
vn 0.44721232 -0.89442783 0
vn 0.44721436 -0.89442681 0
vn 0.68824732 0.22941565 0.68824711
vn 0.6882472 0.22941584 0.68824717
vn 1.6e-7 -0.44721411 0.89442694
vn 0 -0.4472136 0.89442719
vn 0 -0.44721411 0.89442694
vn -1.6e-7 -0.4472136 0.89442719
vn -1.6e-7 -0.44721257 0.8944277
vn 1.6e-7 -0.4472136 0.89442719
vn 0 -0.44721257 0.8944277
vn 0 0.3162277 0.94868332
vn 0 0.3162279 0.94868325
vn -0.40824833 0.81649661 -0.40824821
vn -0.57735027 -0.57735027 0.57735027
vn -0.40824831 0.81649658 0.40824827
g Object 5937
usemtl Watcher
f 1/1/1 2/2/1 3/3/1
f 1/1/1 4/4/1 2/2/1
f 3/3/1 5/5/1 6/6/1
f 3/3/1 2/2/1 5/5/1
f 7/7/2 8/4/2 9/1/2
f 7/7/2 10/8/2 8/4/2
f 9/1/2 11/2/2 12/3/2
f 9/1/2 8/4/2 11/2/2
f 12/3/2 13/5/2 14/6/2
f 12/3/2 11/2/2 13/5/2
f 15/7/3 16/4/3 17/1/3
f 15/7/3 18/8/3 16/4/3
f 17/1/3 19/2/3 20/3/3
f 17/1/3 16/4/3 19/2/3
f 20/3/3 21/5/3 22/6/3
f 20/3/3 19/2/3 21/5/3
f 23/9/2 24/10/2 25/11/2
f 23/9/2 26/12/2 24/10/2
f 25/11/2 27/13/2 28/14/2
f 25/11/2 24/10/2 27/13/2
f 6/6/1 29/12/1 30/9/1
f 6/6/1 5/5/1 29/12/1
f 30/9/1 31/10/1 32/11/1
f 30/9/1 29/12/1 31/10/1
f 32/11/1 33/13/1 34/14/1
f 32/11/1 31/10/1 33/13/1
f 35/6/4 36/12/4 37/9/4
f 35/6/4 38/5/4 36/12/4
f 37/9/4 39/10/4 40/11/4
f 37/9/4 36/12/4 39/10/4
f 40/11/4 41/13/4 42/14/4
f 40/11/4 39/10/4 41/13/4
f 43/15/5 44/16/5 45/17/5
f 43/15/6 46/18/6 44/16/6
f 45/17/7 47/19/7 48/20/7
f 45/17/8 44/16/8 47/19/8
f 49/21/9 43/18/9 50/15/9
f 49/21/9 51/22/9 43/18/9
f 50/15/10 45/16/10 52/17/10
f 50/15/10 43/18/10 45/16/10
f 52/17/11 48/19/11 53/20/11
f 52/17/11 45/16/11 48/19/11
f 54/21/12 50/18/12 55/15/12
f 54/21/13 49/22/13 50/18/13
f 56/17/14 53/19/14 57/20/14
f 56/17/15 52/16/15 53/19/15
f 58/17/16 59/19/16 60/20/16
f 58/17/17 61/16/17 59/19/17
f 46/15/18 56/16/18 44/17/18
f 46/15/18 55/18/18 56/16/18
f 62/23/19 49/20/19 54/24/19
f 62/23/19 51/25/19 49/20/19
f 44/17/20 57/19/20 47/20/20
f 44/17/20 56/16/20 57/19/20
f 63/21/21 64/18/21 65/15/21
f 63/21/22 66/22/22 64/18/22
f 67/7/23 68/5/23 69/6/23
f 67/7/24 70/8/24 68/5/24
f 62/21/25 55/18/25 46/15/25
f 62/21/25 54/22/25 55/18/25
f 71/17/26 60/19/26 72/20/26
f 71/17/26 58/16/26 60/19/26
f 67/7/27 73/5/27 70/6/27
f 67/7/28 69/8/28 73/5/28
f 51/21/29 46/18/29 43/15/29
f 51/21/30 62/22/30 46/18/30
f 74/15/31 61/16/31 58/17/31
f 74/15/32 75/18/32 61/16/32
f 76/17/33 72/19/33 77/20/33
f 76/17/34 71/16/34 72/19/34
f 78/21/35 65/18/35 75/15/35
f 78/21/35 63/22/35 65/18/35
f 75/15/36 76/16/36 61/17/36
f 75/15/36 65/18/36 76/16/36
f 55/15/13 52/16/13 56/17/13
f 55/15/37 50/18/37 52/16/37
f 79/7/27 80/5/27 81/6/27
f 79/7/38 82/8/38 80/5/38
f 65/15/22 71/16/22 76/17/22
f 65/15/39 64/18/39 71/16/39
f 79/7/40 83/5/40 82/6/40
f 79/7/24 81/8/24 83/5/24
f 78/23/19 66/20/19 63/24/19
f 78/23/19 84/25/19 66/20/19
f 66/21/41 74/18/41 64/15/41
f 66/21/41 84/22/41 74/18/41
f 64/15/42 58/16/42 71/17/42
f 64/15/42 74/18/42 58/16/42
f 61/17/43 77/19/43 59/20/43
f 61/17/43 76/16/43 77/19/43
f 84/21/44 75/18/44 74/15/44
f 84/21/45 78/22/45 75/18/45
f 85/26/46 86/27/46 87/28/46
f 85/26/47 88/29/47 86/27/47
f 89/30/48 90/31/48 91/32/48
f 89/30/49 92/33/49 90/31/49
f 93/32/50 94/29/50 95/26/50
f 93/32/51 96/31/51 94/29/51
f 97/30/52 96/31/52 93/32/52
f 97/30/53 98/33/53 96/31/53
f 99/34/54 100/35/54 101/36/54
f 99/34/54 102/37/54 100/35/54
f 103/38/55 104/39/55 105/40/55
f 103/38/56 106/31/56 104/39/56
f 107/41/57 10/42/57 7/19/57
f 108/41/58 18/42/58 15/19/58
f 109/41/59 110/42/59 111/19/59
f 112/43/60 99/44/60 101/45/60
f 113/43/61 114/44/61 115/45/61
f 116/46/62 117/44/62 118/47/62
f 116/46/62 119/27/62 117/44/62
f 120/37/62 118/47/62 121/35/62
f 120/37/62 116/46/62 118/47/62
f 115/34/62 121/35/62 113/36/62
f 115/34/62 120/37/62 121/35/62
f 122/48/63 123/31/63 124/49/63
f 122/48/63 125/33/63 123/31/63
f 126/50/63 124/49/63 127/51/63
f 126/50/63 122/48/63 124/49/63
f 128/52/63 127/51/63 129/53/63
f 128/52/63 126/50/63 127/51/63
f 124/49/63 130/29/63 131/54/63
f 124/49/63 123/31/63 130/29/63
f 127/51/63 131/54/63 132/55/63
f 127/51/63 124/49/63 131/54/63
f 129/53/63 132/55/63 133/56/63
f 129/53/63 127/51/63 132/55/63
f 131/54/64 119/27/64 116/46/64
f 131/54/64 130/29/64 119/27/64
f 132/55/64 116/46/64 120/37/64
f 132/55/64 131/54/64 116/46/64
f 133/56/64 120/37/64 115/34/64
f 133/56/64 132/55/64 120/37/64
f 134/57/65 135/39/65 136/58/65
f 134/57/65 137/31/65 135/39/65
f 138/59/65 136/58/65 139/60/65
f 138/59/65 134/57/65 136/58/65
f 140/38/65 139/60/65 141/40/65
f 140/38/65 138/59/65 139/60/65
f 136/58/65 142/61/65 143/62/65
f 136/58/65 135/39/65 142/61/65
f 139/60/65 143/62/65 144/63/65
f 139/60/65 136/58/65 143/62/65
f 141/40/65 144/63/65 145/64/65
f 141/40/65 139/60/65 144/63/65
f 143/62/65 125/33/65 122/65/65
f 143/62/65 142/61/65 125/33/65
f 144/63/65 122/65/65 126/66/65
f 144/63/65 143/62/65 122/65/65
f 145/64/65 126/66/65 128/67/65
f 145/64/65 144/63/65 126/66/65
f 146/68/13 17/69/13 147/70/13
f 146/68/13 15/22/13 17/69/13
f 148/71/13 147/70/13 149/72/13
f 148/71/13 146/68/13 147/70/13
f 10/7/13 149/72/13 8/1/13
f 10/7/13 148/71/13 149/72/13
f 147/70/13 20/73/13 150/74/13
f 147/70/13 17/69/13 20/73/13
f 149/72/13 150/74/13 151/75/13
f 149/72/13 147/70/13 150/74/13
f 8/1/13 151/75/13 11/3/13
f 8/1/13 149/72/13 151/75/13
f 150/74/13 22/76/13 152/77/13
f 150/74/13 20/73/13 22/76/13
f 151/75/13 152/77/13 153/78/13
f 151/75/13 150/74/13 152/77/13
f 11/3/13 153/78/13 13/6/13
f 11/3/13 151/75/13 153/78/13
f 152/77/13 154/79/13 155/80/13
f 152/77/13 22/76/13 154/79/13
f 153/78/13 155/80/13 156/81/13
f 153/78/13 152/77/13 155/80/13
f 13/6/13 156/81/13 26/9/13
f 13/6/13 153/78/13 156/81/13
f 155/80/13 157/41/13 158/82/13
f 155/80/13 154/79/13 157/41/13
f 156/81/13 158/82/13 159/83/13
f 156/81/13 155/80/13 158/82/13
f 26/9/13 159/83/13 24/11/13
f 26/9/13 156/81/13 159/83/13
f 158/82/13 160/19/13 161/84/13
f 158/82/13 157/41/13 160/19/13
f 159/83/13 161/84/13 162/85/13
f 159/83/13 158/82/13 161/84/13
f 24/11/13 162/85/13 27/14/13
f 24/11/13 159/83/13 162/85/13
f 163/86/66 15/44/66 146/87/66
f 163/86/66 108/88/66 15/44/66
f 22/6/3 164/12/3 154/9/3
f 22/6/3 21/5/3 164/12/3
f 165/38/67 141/39/67 166/40/67
f 165/38/68 140/31/68 141/39/68
f 154/9/3 167/10/3 157/11/3
f 154/9/3 164/12/3 167/10/3
f 168/89/66 146/87/66 148/90/66
f 168/89/66 163/86/66 146/87/66
f 107/41/66 148/90/66 10/19/66
f 107/41/66 168/89/66 148/90/66
f 169/91/69 170/92/69 171/93/69
f 169/91/70 172/94/70 170/92/70
f 42/95/71 172/94/71 169/91/71
f 42/95/72 41/96/72 172/94/72
f 173/63/73 174/65/73 175/66/73
f 173/63/73 176/62/73 174/65/73
f 161/87/74 177/97/74 178/98/74
f 161/87/74 160/44/74 177/97/74
f 162/90/74 178/98/74 179/99/74
f 162/90/74 161/87/74 178/98/74
f 27/19/74 179/99/74 180/100/74
f 27/19/74 162/90/74 179/99/74
f 178/98/75 181/101/75 182/102/75
f 178/98/75 177/97/75 181/101/75
f 179/99/75 182/102/75 183/103/75
f 179/99/75 178/98/75 182/102/75
f 180/100/75 183/103/75 184/104/75
f 180/100/75 179/99/75 183/103/75
f 182/102/74 137/29/74 134/105/74
f 182/102/74 181/101/74 137/29/74
f 183/103/74 134/105/74 138/106/74
f 183/103/74 182/102/74 134/105/74
f 184/104/74 138/106/74 140/95/74
f 184/104/74 183/103/74 138/106/74
f 60/87/76 185/97/76 186/98/76
f 60/87/76 28/44/76 185/97/76
f 72/90/76 186/98/76 187/99/76
f 72/90/76 60/87/76 186/98/76
f 33/19/76 187/99/76 188/100/76
f 33/19/76 72/90/76 187/99/76
f 186/98/77 189/101/77 190/102/77
f 186/98/77 185/97/77 189/101/77
f 187/99/77 190/102/77 191/103/77
f 187/99/77 186/98/77 190/102/77
f 188/100/77 191/103/77 192/104/77
f 188/100/77 187/99/77 191/103/77
f 190/102/76 165/29/76 193/105/76
f 190/102/76 189/101/76 165/29/76
f 191/103/76 193/105/76 194/106/76
f 191/103/76 190/102/76 193/105/76
f 192/104/76 194/106/76 106/95/76
f 192/104/76 191/103/76 194/106/76
f 195/38/73 196/60/73 197/40/73
f 195/38/73 198/59/73 196/60/73
f 135/40/78 199/61/78 142/64/78
f 135/40/79 197/39/79 199/61/79
f 109/41/80 200/90/80 110/19/80
f 109/41/80 83/89/80 200/90/80
f 197/40/81 173/63/81 199/64/81
f 197/40/82 196/60/82 173/63/82
f 137/38/83 197/39/83 135/40/83
f 137/38/84 195/31/84 197/39/84
f 142/64/85 201/33/85 125/67/85
f 142/64/86 199/61/86 201/33/86
f 81/86/80 7/44/80 202/87/80
f 81/86/80 107/88/80 7/44/80
f 83/89/80 202/87/80 200/90/80
f 83/89/80 81/86/80 202/87/80
f 203/64/87 92/33/87 89/67/87
f 203/64/88 204/61/88 92/33/88
f 202/68/25 9/69/25 205/70/25
f 202/68/25 7/22/25 9/69/25
f 200/71/25 205/70/25 206/72/25
f 200/71/25 202/68/25 205/70/25
f 110/7/25 206/72/25 4/1/25
f 110/7/25 200/71/25 206/72/25
f 205/70/25 12/73/25 207/74/25
f 205/70/25 9/69/25 12/73/25
f 206/72/25 207/74/25 208/75/25
f 206/72/25 205/70/25 207/74/25
f 4/1/25 208/75/25 2/3/25
f 4/1/25 206/72/25 208/75/25
f 207/74/25 14/76/25 209/77/25
f 207/74/25 12/73/25 14/76/25
f 208/75/25 209/77/25 210/78/25
f 208/75/25 207/74/25 209/77/25
f 2/3/25 210/78/25 5/6/25
f 2/3/25 208/75/25 210/78/25
f 193/57/89 166/39/89 211/58/89
f 193/57/89 165/31/89 166/39/89
f 194/59/89 211/58/89 212/60/89
f 194/59/89 193/57/89 211/58/89
f 106/38/89 212/60/89 104/40/89
f 106/38/89 194/59/89 212/60/89
f 211/58/89 213/61/89 214/62/89
f 211/58/89 166/39/89 213/61/89
f 212/60/89 214/62/89 215/63/89
f 212/60/89 211/58/89 214/62/89
f 104/40/89 215/63/89 216/64/89
f 104/40/89 212/60/89 215/63/89
f 214/62/89 217/33/89 218/65/89
f 214/62/89 213/61/89 217/33/89
f 215/63/89 218/65/89 219/66/89
f 215/63/89 214/62/89 218/65/89
f 216/64/89 219/66/89 98/67/89
f 216/64/89 215/63/89 219/66/89
f 218/48/90 220/31/90 221/49/90
f 218/48/90 217/33/90 220/31/90
f 219/50/90 221/49/90 222/51/90
f 219/50/90 218/48/90 221/49/90
f 98/52/90 222/51/90 96/53/90
f 98/52/90 219/50/90 222/51/90
f 221/49/91 223/29/91 224/54/91
f 221/49/91 220/31/91 223/29/91
f 222/51/91 224/54/91 225/55/91
f 222/51/91 221/49/91 224/54/91
f 96/53/91 225/55/91 94/56/91
f 96/53/91 222/51/91 225/55/91
f 224/54/90 114/27/90 226/46/90
f 224/54/90 223/29/90 114/27/90
f 225/55/90 226/46/90 102/37/90
f 225/55/90 224/54/90 226/46/90
f 94/56/90 102/37/90 99/34/90
f 94/56/90 225/55/90 102/37/90
f 209/77/25 23/79/25 227/80/25
f 209/77/25 14/76/25 23/79/25
f 210/78/25 227/80/25 228/81/25
f 210/78/25 209/77/25 227/80/25
f 5/6/25 228/81/25 29/9/25
f 5/6/25 210/78/25 228/81/25
f 227/80/25 25/41/25 59/82/25
f 227/80/25 23/79/25 25/41/25
f 228/81/25 59/82/25 77/83/25
f 228/81/25 227/80/25 59/82/25
f 29/9/25 77/83/25 31/11/25
f 29/9/25 228/81/25 77/83/25
f 59/82/25 28/19/25 60/84/25
f 59/82/25 25/41/25 28/19/25
f 102/37/54 229/47/54 100/35/54
f 102/37/54 226/46/54 229/47/54
f 31/11/25 72/85/25 33/14/25
f 31/11/25 77/83/25 72/85/25
f 220/32/92 133/29/92 223/26/92
f 220/32/93 129/31/93 133/29/93
f 230/35/94 231/107/94 232/108/94
f 230/35/94 233/47/94 231/107/94
f 234/36/94 232/108/94 235/109/94
f 234/36/94 230/35/94 232/108/94
f 231/107/94 229/110/94 236/111/94
f 231/107/94 100/112/94 229/110/94
f 232/108/94 236/111/94 237/113/94
f 232/108/94 231/107/94 236/111/94
f 235/109/94 237/113/94 238/114/94
f 235/109/94 232/108/94 237/113/94
f 236/111/94 113/115/94 121/116/94
f 236/111/94 229/110/94 113/115/94
f 237/113/94 121/116/94 118/117/94
f 237/113/94 236/111/94 121/116/94
f 238/114/94 118/117/94 117/118/94
f 238/114/94 237/113/94 118/117/94
f 239/7/4 240/4/4 241/1/4
f 239/7/4 242/8/4 240/4/4
f 241/1/4 243/2/4 244/3/4
f 241/1/4 240/4/4 243/2/4
f 244/3/4 38/5/4 35/6/4
f 244/3/4 243/2/4 38/5/4
f 160/95/95 245/94/95 177/91/95
f 160/95/96 246/96/96 245/94/96
f 213/64/97 128/33/97 217/67/97
f 213/64/98 145/61/98 128/33/98
f 166/40/99 145/61/99 213/64/99
f 166/40/100 141/39/100 145/61/100
f 247/46/101 234/44/101 235/47/101
f 247/46/101 87/27/101 234/44/101
f 248/37/101 235/47/101 238/35/101
f 248/37/101 247/46/101 235/47/101
f 249/34/101 238/35/101 117/36/101
f 249/34/101 248/37/101 238/35/101
f 250/119/102 101/67/102 233/120/102
f 250/119/102 112/38/102 101/67/102
f 125/30/103 251/31/103 123/32/103
f 125/30/104 201/33/104 251/31/104
f 130/26/105 249/27/105 119/28/105
f 130/26/106 252/29/106 249/27/106
f 217/30/107 129/31/107 220/32/107
f 217/30/108 128/33/108 129/31/108
f 223/26/109 115/27/109 114/28/109
f 223/26/92 133/29/92 115/27/92
f 86/121/102 230/122/102 234/123/102
f 86/121/102 253/124/102 230/122/102
f 233/47/94 100/112/94 231/107/94
f 233/47/94 101/44/94 100/112/94
f 253/124/102 233/120/102 230/122/102
f 253/124/102 250/119/102 233/120/102
f 123/32/110 252/29/110 130/26/110
f 123/32/111 251/31/111 252/29/111
f 174/48/112 91/31/112 254/49/112
f 174/48/112 89/33/112 91/31/112
f 175/50/112 254/49/112 255/51/112
f 175/50/112 174/48/112 254/49/112
f 201/52/112 255/51/112 251/53/112
f 201/52/112 175/50/112 255/51/112
f 254/49/112 85/29/112 256/54/112
f 254/49/112 91/31/112 85/29/112
f 255/51/112 256/54/112 257/55/112
f 255/51/112 254/49/112 256/54/112
f 251/53/112 257/55/112 252/56/112
f 251/53/112 255/51/112 257/55/112
f 256/54/113 87/27/113 247/46/113
f 256/54/113 85/29/113 87/27/113
f 257/55/113 247/46/113 248/37/113
f 257/55/113 256/54/113 247/46/113
f 252/56/113 248/37/113 249/34/113
f 252/56/113 257/55/113 248/37/113
f 258/87/114 259/97/114 260/98/114
f 258/87/114 34/44/114 259/97/114
f 261/90/114 260/98/114 262/99/114
f 261/90/114 258/87/114 260/98/114
f 41/19/115 262/99/115 172/100/115
f 41/19/114 261/90/114 262/99/114
f 260/98/116 263/101/116 264/102/116
f 260/98/116 259/97/116 263/101/116
f 262/99/116 264/102/116 265/103/116
f 262/99/116 260/98/116 264/102/116
f 172/100/117 265/103/117 170/104/117
f 172/100/118 262/99/118 265/103/118
f 264/102/119 103/29/119 266/105/119
f 264/102/119 263/101/119 103/29/119
f 265/103/119 266/105/119 267/106/119
f 265/103/119 264/102/119 266/105/119
f 170/104/119 267/106/119 268/95/119
f 170/104/119 265/103/119 267/106/119
f 269/77/22 30/79/22 270/80/22
f 269/77/22 6/76/22 30/79/22
f 271/78/22 270/80/22 272/81/22
f 271/78/22 269/77/22 270/80/22
f 38/6/22 272/81/22 36/9/22
f 38/6/22 271/78/22 272/81/22
f 270/80/22 32/41/22 273/82/22
f 270/80/22 30/79/22 32/41/22
f 272/81/22 273/82/22 274/83/22
f 272/81/22 270/80/22 273/82/22
f 36/9/22 274/83/22 39/11/22
f 36/9/22 272/81/22 274/83/22
f 273/82/22 34/19/22 258/84/22
f 273/82/22 32/41/22 34/19/22
f 274/83/22 258/84/22 261/85/22
f 274/83/22 273/82/22 258/84/22
f 39/11/22 261/85/22 41/14/22
f 39/11/22 274/83/22 261/85/22
f 275/68/22 1/69/22 276/70/22
f 275/68/22 111/22/22 1/69/22
f 277/71/22 276/70/22 278/72/22
f 277/71/22 275/68/22 276/70/22
f 242/7/22 278/72/22 240/1/22
f 242/7/22 277/71/22 278/72/22
f 276/70/22 3/73/22 279/74/22
f 276/70/22 1/69/22 3/73/22
f 278/72/22 279/74/22 280/75/22
f 278/72/22 276/70/22 279/74/22
f 240/1/22 280/75/22 243/3/22
f 240/1/22 278/72/22 280/75/22
f 279/74/22 6/76/22 269/77/22
f 279/74/22 3/73/22 6/76/22
f 280/75/22 269/77/22 271/78/22
f 280/75/22 279/74/22 269/77/22
f 243/3/22 271/78/22 38/6/22
f 243/3/22 280/75/22 271/78/22
f 105/40/120 216/61/120 281/64/120
f 105/40/121 104/39/121 216/61/121
f 282/38/122 283/39/122 284/40/122
f 282/38/123 268/31/123 283/39/123
f 284/40/124 204/61/124 203/64/124
f 284/40/125 283/39/125 204/61/125
f 281/64/126 98/33/126 97/67/126
f 281/64/127 216/61/127 98/33/127
f 189/93/128 140/125/128 165/38/128
f 189/93/129 184/92/129 140/125/129
f 185/91/130 184/92/130 189/93/130
f 185/91/131 180/94/131 184/92/131
f 285/86/132 111/44/132 275/87/132
f 285/86/132 109/88/132 111/44/132
f 286/89/132 275/87/132 277/90/132
f 286/89/132 285/86/132 275/87/132
f 287/41/132 277/90/132 242/19/132
f 287/41/132 286/89/132 277/90/132
f 168/126/19 81/110/19 80/127/19
f 168/126/19 107/115/19 81/110/19
f 163/128/19 80/127/19 288/129/19
f 163/128/19 168/126/19 80/127/19
f 108/22/19 288/129/19 73/18/19
f 108/22/19 163/128/19 288/129/19
f 91/32/133 88/29/133 85/26/133
f 91/32/134 90/31/134 88/29/134
f 288/129/19 82/130/19 289/131/19
f 288/129/19 80/127/19 82/130/19
f 226/46/54 113/44/54 229/47/54
f 226/46/54 114/27/54 113/44/54
f 82/130/19 109/44/19 285/87/19
f 82/130/19 83/112/19 109/44/19
f 289/131/19 285/87/19 286/90/19
f 289/131/19 82/130/19 285/87/19
f 69/16/19 286/90/19 287/19/19
f 69/16/19 289/131/19 286/90/19
f 181/93/135 195/125/135 137/38/135
f 181/93/136 290/92/136 195/125/136
f 259/91/137 192/92/137 263/93/137
f 259/91/138 188/94/138 192/92/138
f 108/41/139 291/90/139 18/19/139
f 108/41/140 73/89/140 291/90/140
f 69/86/141 239/44/141 292/87/141
f 69/86/142 287/88/142 239/44/142
f 73/89/141 292/87/141 291/90/141
f 73/89/141 69/86/141 292/87/141
f 263/93/143 106/125/143 103/38/143
f 263/93/144 192/92/144 106/125/144
f 177/91/145 290/92/145 181/93/145
f 177/91/146 245/94/146 290/92/146
f 34/95/147 188/94/147 259/91/147
f 34/95/148 33/96/148 188/94/148
f 28/95/149 180/94/149 185/91/149
f 28/95/150 27/96/150 180/94/150
f 292/68/35 241/69/35 293/70/35
f 292/68/35 239/22/35 241/69/35
f 291/71/35 293/70/35 294/72/35
f 291/71/35 292/68/35 293/70/35
f 18/7/35 294/72/35 16/1/35
f 18/7/35 291/71/35 294/72/35
f 293/70/35 244/73/35 295/74/35
f 293/70/35 241/69/35 244/73/35
f 294/72/35 295/74/35 296/75/35
f 294/72/35 293/70/35 295/74/35
f 16/1/35 296/75/35 19/3/35
f 16/1/35 294/72/35 296/75/35
f 295/74/35 35/76/35 297/77/35
f 295/74/35 244/73/35 35/76/35
f 296/75/35 297/77/35 298/78/35
f 296/75/35 295/74/35 297/77/35
f 19/3/35 298/78/35 21/6/35
f 19/3/35 296/75/35 298/78/35
f 299/57/73 284/39/73 300/58/73
f 299/57/73 282/31/73 284/39/73
f 198/59/73 300/58/73 196/60/73
f 198/59/73 299/57/73 300/58/73
f 171/93/151 268/125/151 282/38/151
f 171/93/152 170/92/152 268/125/152
f 300/58/153 203/61/153 176/62/153
f 300/58/154 284/39/154 203/61/154
f 196/60/82 176/62/82 173/63/82
f 196/60/82 300/58/82 176/62/82
f 111/7/1 4/4/1 1/1/1
f 111/7/1 110/8/1 4/4/1
f 176/62/73 89/33/73 174/65/73
f 176/62/155 203/61/155 89/33/155
f 157/11/3 246/13/3 160/14/3
f 157/11/3 167/10/3 246/13/3
f 199/64/156 175/66/156 201/67/156
f 199/64/157 173/63/157 175/66/157
f 48/87/158 169/97/158 301/98/158
f 48/87/158 42/44/158 169/97/158
f 53/90/158 301/98/158 302/99/158
f 53/90/158 48/87/158 301/98/158
f 246/19/158 302/99/158 245/100/158
f 246/19/158 53/90/158 302/99/158
f 301/98/159 171/101/159 303/102/159
f 301/98/159 169/97/159 171/101/159
f 302/99/159 303/102/159 304/103/159
f 302/99/159 301/98/159 303/102/159
f 245/100/159 304/103/159 290/104/159
f 245/100/159 302/99/159 304/103/159
f 303/102/160 282/29/160 299/105/160
f 303/102/160 171/101/160 282/29/160
f 304/103/160 299/105/160 198/106/160
f 304/103/160 303/102/160 299/105/160
f 290/104/160 198/106/160 195/95/160
f 290/104/160 304/103/160 198/106/160
f 297/77/35 37/79/35 305/80/35
f 297/77/35 35/76/35 37/79/35
f 298/78/35 305/80/35 306/81/35
f 298/78/35 297/77/35 305/80/35
f 21/6/35 306/81/35 164/9/35
f 21/6/35 298/78/35 306/81/35
f 305/80/35 40/41/35 47/82/35
f 305/80/35 37/79/35 40/41/35
f 306/81/35 47/82/35 57/83/35
f 306/81/35 305/80/35 47/82/35
f 164/9/35 57/83/35 167/11/35
f 164/9/35 306/81/35 57/83/35
f 47/82/35 42/19/35 48/84/35
f 47/82/35 40/41/35 42/19/35
f 95/26/161 99/27/161 112/28/161
f 95/26/162 94/29/162 99/27/162
f 167/11/35 53/85/35 246/14/35
f 167/11/35 57/83/35 53/85/35
f 266/57/163 105/39/163 307/58/163
f 266/57/164 103/31/164 105/39/164
f 267/59/165 307/58/165 308/60/165
f 267/59/165 266/57/165 307/58/165
f 268/38/166 308/60/166 283/40/166
f 268/38/165 267/59/165 308/60/165
f 307/58/167 281/61/167 309/62/167
f 307/58/168 105/39/168 281/61/168
f 308/60/169 309/62/169 310/63/169
f 308/60/169 307/58/169 309/62/169
f 283/40/168 310/63/168 204/64/168
f 283/40/167 308/60/167 310/63/167
f 309/62/165 97/33/165 311/65/165
f 309/62/166 281/61/166 97/33/166
f 310/63/165 311/65/165 312/66/165
f 310/63/165 309/62/165 311/65/165
f 204/64/164 312/66/164 92/67/164
f 204/64/163 310/63/163 312/66/163
f 311/84/170 93/132/170 313/133/170
f 311/84/170 97/19/170 93/132/170
f 312/85/170 313/133/170 314/134/170
f 312/85/170 311/84/170 313/133/170
f 92/14/170 314/134/170 90/135/170
f 92/14/170 312/85/170 314/134/170
f 313/133/171 95/95/171 315/136/171
f 313/133/171 93/132/171 95/95/171
f 314/134/171 315/136/171 316/137/171
f 314/134/171 313/133/171 315/136/171
f 90/135/171 316/137/171 88/138/171
f 90/135/171 314/134/171 316/137/171
f 315/136/170 112/38/170 250/119/170
f 315/136/170 95/95/170 112/38/170
f 316/137/170 250/119/170 253/124/170
f 316/137/170 315/136/170 250/119/170
f 88/138/170 253/124/170 86/121/170
f 88/138/170 316/137/170 253/124/170
f 117/43/172 119/44/172 249/45/172
f 287/41/173 242/42/173 239/19/173
f 87/43/174 86/44/174 234/45/174
f 14/6/2 26/12/2 23/9/2
f 14/6/2 13/5/2 26/12/2
